<?xml version="1.0" encoding="UTF-8" standalone="no"?>
<svg
   xmlns:dc="http://purl.org/dc/elements/1.1/"
   xmlns:cc="http://creativecommons.org/ns#"
   xmlns:rdf="http://www.w3.org/1999/02/22-rdf-syntax-ns#"
   xmlns:svg="http://www.w3.org/2000/svg"
   xmlns="http://www.w3.org/2000/svg"
   id="svg8"
   version="1.1"
   viewBox="0 0 1000 1000"
   height="1000"
   width="1000">
  <defs
     id="defs2" />
  <metadata
     id="metadata5">
    <rdf:RDF>
      <cc:Work
         rdf:about="">
        <dc:format>image/svg+xml</dc:format>
        <dc:type
           rdf:resource="http://purl.org/dc/dcmitype/StillImage" />
        <dc:title></dc:title>
      </cc:Work>
    </rdf:RDF>
  </metadata>
  <g
     transform="translate(0,-122.51965)"
     id="layer1">
    <path
       id="path36"
       d="m 714.04351,138.23523 c -2.1885,-0.0357 -3.04643,0.4816 -1.46063,2.02392 2.1144,2.05643 8.57607,5.93421 13.56933,10.39883 4.99325,4.46462 8.52297,9.52314 9.99005,12.69196 1.46708,3.16883 0.87918,4.46052 -0.41376,3.75624 -1.29295,-0.70428 -3.28911,-3.40698 -6.6376,-6.52045 -3.3485,-3.11348 -8.05008,-6.63869 -13.86594,-10.10471 -5.81585,-3.46604 -12.74906,-6.87468 -20.20942,-8.93074 -7.46036,-2.05605 -15.45805,-2.76078 -20.27174,-2.58475 -4.81368,0.17604 -6.45673,1.23401 -2.57976,3.87837 3.87697,2.64438 13.27528,6.87453 20.91232,12.33802 7.63703,5.4635 13.51274,12.1624 17.2134,16.97911 3.70065,4.8167 5.22906,7.7529 3.58425,7.28317 -1.6448,-0.46974 -6.4624,-4.34667 -12.27819,-7.87141 -5.8158,-3.52473 -12.63187,-6.69831 -21.32608,-8.51946 -8.69421,-1.82115 -19.27054,-2.2915 -28.96318,-1.52791 -9.69263,0.76357 -18.50925,2.76328 -24.38191,4.58375 -5.87267,1.82046 -8.81062,3.46485 -5.10969,4.05285 3.70094,0.58799 14.04032,0.1174 23.20545,1.2338 9.16511,1.11637 17.15546,3.81837 24.91032,7.6371 7.75487,3.81875 15.27473,8.75544 19.62119,12.22088 4.34646,3.46544 5.52289,5.46343 3.05584,5.46362 -2.46705,1.9e-4 -8.57987,-1.99703 -15.68798,-3.52443 -7.10811,-1.52742 -15.21488,-2.58536 -24.49657,-2.35046 -9.28169,0.23489 -19.74168,1.76112 -28.61173,3.46462 -8.87005,1.70348 -16.16178,3.5859 -20.21191,5.22932 -4.05013,1.64342 -4.87466,3.05504 -0.99701,3.46711 3.87763,0.41206 15.04137,1.06041 22.50032,2.11536 7.91412,1.11933 15.79079,2.58423 23.55943,4.4642 7.58234,1.83488 17.03645,4.87548 22.4424,6.63831 5.40595,1.76284 7.16826,2.70355 5.52345,3.05584 -1.64482,0.35229 -6.69721,0.1169 -14.04042,0.64557 -7.3432,0.52864 -16.98237,1.82204 -25.44123,3.58425 -8.45887,1.76222 -15.74465,3.99606 -21.79467,6.05186 -6.05003,2.05582 -10.86629,3.93518 -10.98458,5.1695 -0.1183,1.23435 4.46317,1.82202 10.16204,3.05584 5.69888,1.23383 12.5118,3.11201 17.97612,4.69843 5.46433,1.58641 9.57828,2.88049 8.99055,4.17249 -0.58773,1.29199 -5.87629,2.58281 -9.22485,5.98955 -3.34856,3.40672 -4.75895,8.93143 -3.17298,16.09923 1.58595,7.1678 6.16828,15.97784 16.56783,20.97213 10.39954,4.99431 26.61063,6.16902 38.47965,3.81856 11.86903,-2.35046 19.39077,-8.22325 23.20295,-9.29713 3.81219,-1.07388 3.91685,2.65383 4.30211,9.66852 0.38524,7.0147 1.04913,17.31791 -0.94467,30.61074 -1.9938,13.29285 -6.64545,29.57881 -12.62715,45.61327 -5.9817,16.03447 -13.29342,31.82085 -17.94621,51.17909 -4.65279,19.35824 -6.64665,42.29039 -5.98207,61.81471 0.66457,19.52432 3.98804,35.64305 5.23431,53.67161 1.24629,18.02857 0.41432,37.97432 -0.91475,51.34859 -1.3291,13.37427 -3.15623,20.18311 -3.07329,23.50952 0.0829,3.32641 2.07452,3.15873 3.65404,2.41027 1.57953,-0.74845 2.74355,-2.07669 3.4073,-1.57776 0.66372,0.49892 0.83028,2.82525 -1.49553,7.22833 -2.3258,4.40308 -7.14479,10.8836 -14.04041,19.27472 -6.89563,8.39112 -15.86984,18.69538 -25.42379,27.83407 -9.55396,9.13868 -19.69385,17.11702 -28.00106,23.09826 -8.30722,5.98124 -14.78726,9.97055 -21.60026,10.63561 -6.81299,0.66508 -13.96102,-1.99499 -20.27422,-3.15803 -6.31321,-1.16302 -11.79734,-0.83018 -16.11669,0.99702 -4.31936,1.82718 -7.47743,5.14975 -12.7119,5.31656 -5.23447,0.16681 -12.54628,-2.82392 -19.85797,-7.80909 -7.31171,-4.98518 -14.62409,-11.9636 -22.39787,-17.55239 -7.77376,-5.58878 -16.01179,-9.79038 -23.65409,-11.77222 -7.6423,-1.98182 -14.69327,-1.74643 -22.21341,-3.74377 -7.52015,-1.99734 -15.51055,-6.22658 -32.54744,-10.339 -17.03689,-4.11243 -43.12271,-8.10935 -64.62379,-9.40183 -21.50109,-1.29245 -38.42286,0.1192 -57.69206,2.82155 -19.26921,2.70235 -40.88859,6.69665 -66.62031,17.97612 -25.7317,11.27946 -55.5799,29.84583 -79.66619,47.58735 -24.08628,17.74152 -42.41695,34.66224 -60.1472,54.4443 -17.730251,19.78205 -34.863648,42.42872 -47.500112,63.55449 -12.636464,21.12576 -20.778726,40.73544 -25.929775,58.0161 -5.151049,17.28064 -7.310629,32.23835 -8.556852,45.28176 -1.246223,13.0434 -1.5785635,24.17842 -1.4955105,33.15059 0.08308,8.97227 0.5793705,15.78245 1.9092715,17.19594 1.329902,1.41362 3.490414,-2.5729 7.39533,-12.7093 3.904915,-10.13652 9.554234,-26.42112 19.441728,-44.28481 9.887495,-17.86368 24.010536,-37.30151 37.886433,-53.33762 13.875898,-16.03609 27.501107,-28.66611 42.789227,-41.37846 15.28813,-12.71235 32.23508,-25.50479 49.43432,-36.55543 17.19923,-11.05063 34.64571,-20.356 48.52206,-26.33854 13.87634,-5.98254 24.17341,-8.63953 30.3241,-9.80312 6.15068,-1.16359 8.14554,-0.83122 5.65304,0.83002 -2.49248,1.66123 -9.47479,4.65311 -16.70243,8.22534 -7.22764,3.57223 -14.70759,7.72677 -20.85498,12.29565 -6.14739,4.56887 -10.96711,9.55551 -15.28668,13.95815 -4.31957,4.40265 -8.14073,8.22402 -8.3076,10.21937 -0.16686,1.99535 3.32346,2.16268 6.64758,2.24577 3.3241,0.0831 6.48002,0.081 5.06731,1.74227 -1.41272,1.66126 -7.39568,4.98561 -13.8759,10.71788 -6.48025,5.73227 -13.45994,13.87669 -18.44472,22.3505 -4.98478,8.47381 -7.97697,17.28295 -10.13711,26.58781 -2.16015,9.30484 -3.48959,19.11145 -3.98805,26.08928 -0.49846,6.97783 -0.16585,11.13133 1.91177,9.88538 2.07763,-1.24597 5.89846,-7.89153 10.46862,-14.53892 4.57017,-6.64739 9.88507,-13.29163 14.53892,-18.02846 4.65385,-4.73683 8.64468,-7.56318 7.89633,-4.73829 -0.74835,2.82487 -6.23474,11.3 -10.88737,21.68499 -4.65262,10.38499 -8.47297,22.6834 -11.13163,35.81016 -2.65867,13.12677 -4.15581,27.086 -4.32204,40.12965 -0.16623,13.04378 0.99703,25.17522 2.49253,32.32061 1.49549,7.14545 3.32469,9.30505 5.0698,6.06435 1.74511,-3.24075 3.40539,-11.88047 6.81208,-23.18049 3.40669,-11.30001 8.55797,-25.25742 14.12516,-37.30567 5.56719,-12.04824 11.54804,-22.18322 18.71889,-34.31214 7.17084,-12.12894 15.52862,-26.2463 24.64362,-39.71096 9.11502,-13.46467 18.98207,-26.26967 26.50306,-35.9647 7.521,-9.69503 12.69211,-16.27533 16.21639,-18.50703 3.52428,-2.23168 5.4058,-0.11702 5.11218,3.52444 -0.29362,3.64142 -2.7621,8.81474 -5.34647,13.33752 -2.58437,4.52278 -5.28758,8.39868 -5.22933,11.39584 0.0582,2.99717 2.8815,5.11375 3.40978,7.16851 0.52829,2.05477 -1.23685,4.05301 -2.64706,7.87141 -1.41023,3.81839 -2.46672,9.45962 -2.29063,15.62815 0.17608,6.16854 1.5865,12.8645 3.87837,12.92377 2.29187,0.0592 5.46384,-6.51905 8.63661,-13.45218 3.17276,-6.93314 6.34148,-14.21626 8.45715,-19.44671 2.11566,-5.23045 3.17572,-8.40323 4.11516,-8.81358 0.93944,-0.41035 1.76177,1.93979 0.93969,5.34647 -0.82209,3.40668 -3.29085,7.87443 -5.64059,12.92626 -2.34976,5.05182 -4.58187,10.69213 -5.58078,18.15308 -0.99891,7.46095 -0.76573,16.74478 0.29162,23.55937 1.05736,6.81461 2.9381,11.16076 5.81757,9.75078 2.87946,-1.40998 6.75575,-8.57602 9.69344,-15.68549 2.93769,-7.10945 4.93335,-14.15503 6.52046,-18.79863 1.5871,-4.64363 2.7619,-6.87499 3.29013,-4.70092 0.52825,2.17406 0.41139,8.75563 0.82253,14.57132 0.41116,5.8157 1.35182,10.86492 3.76124,13.80363 2.40941,2.9387 6.28476,3.76057 9.16502,3.29013 2.88025,-0.47042 4.76161,-2.23453 5.81756,-2.52743 1.05596,-0.29288 1.28918,0.88467 1.05434,4.40929 -0.23485,3.52462 -0.93878,9.39739 2.11616,15.2144 3.05493,5.817 9.86778,11.57355 15.50851,15.33403 5.64073,3.76048 10.10438,5.52192 13.45467,5.28665 3.35029,-0.23526 5.5849,-2.46853 6.69992,-2.35045 1.11501,0.11804 1.11284,2.5875 0.2318,7.22833 -0.88105,4.64082 -2.64288,11.45211 -1.17398,15.03739 1.4689,3.58541 6.1696,3.94032 11.22137,7.46511 5.05175,3.52492 10.45527,10.22025 16.09674,12.62966 5.64147,2.40942 11.51323,0.52974 15.33403,-1.2338 3.82082,-1.76355 5.58346,-3.40841 5.28916,-1.822 -0.29433,1.58629 -2.64494,6.40295 -0.4711,7.81402 2.17385,1.41107 8.87019,-0.58678 15.56833,-3.81844 6.69816,-3.23179 13.39451,-7.6961 17.85897,-8.9881 4.46447,-1.29213 6.69787,0.58908 8.34249,4.28961 1.64463,3.70052 2.70329,9.22482 2.11617,13.512 -0.58713,4.2872 -2.81892,7.34145 -0.35145,7.98855 2.46746,0.647 9.63455,-1.1154 18.4472,-1.58525 8.81266,-0.4698 19.26389,0.35285 26.31612,-0.4113 7.05222,-0.764 10.69298,-3.1128 13.63164,-5.0523 2.93866,-1.9396 5.17164,-3.46767 5.11217,-1.1764 -0.0595,2.2911 -2.40924,8.39995 -1.11665,9.98735 1.29259,1.5876 6.22718,-1.3505 14.62865,-6.81445 8.40147,-5.46391 20.26771,-13.4534 31.01952,-22.44278 10.75181,-8.98924 20.38398,-18.97312 26.20146,-26.31855 5.81746,-7.34544 7.81516,-12.0447 10.04738,-13.2777 2.23221,-1.233 4.69791,0.99928 8.39982,2.64458 3.7019,1.64527 8.6365,2.70103 13.33752,1.67248 4.701,-1.02855 9.16324,-4.14151 12.92375,-7.81407 3.76052,-3.67259 6.81487,-7.89951 8.93074,-11.16155 2.11587,-3.26205 3.28952,-5.55196 4.72833,-5.43371 1.43879,0.1183 3.14311,2.644 5.37638,4.28964 2.23327,1.64563 4.99405,2.40927 5.72783,5.99204 0.73377,3.58277 -0.55746,9.98613 0.85245,14.7458 1.4099,4.75967 5.52154,7.87264 9.45914,9.19494 3.93759,1.32227 7.69415,0.85146 11.01449,-0.32403 3.32033,-1.17551 6.19716,-3.05306 8.07827,-3.87589 1.88112,-0.82282 2.7618,-0.58868 5.19942,1.70239 2.43763,2.2911 6.42985,6.63598 9.19245,9.0753 2.7626,2.43932 4.29054,2.96809 5.40629,9.45919 1.11576,6.491 1.82242,18.94736 2.11616,29.37452 0.29373,10.42685 0.17575,18.83785 -0.52842,23.21035 -0.70418,4.3723 -1.99817,4.7272 -3.84847,5.8723 -1.85028,1.1452 -4.26153,3.0845 -6.49303,4.494 -2.23151,1.4096 -4.2872,2.2918 -7.13611,3.4373 -2.84891,1.1454 -6.49441,2.5548 -8.96064,4.14 -2.46623,1.5853 -3.75998,3.3504 -5.28665,4.5838 -1.52668,1.2334 -3.29098,1.9395 -4.64109,2.7318 -1.35011,0.7924 -2.29169,1.6739 -0.85245,1.7921 1.43926,0.1187 5.25667,-0.5296 9.25227,-1.1465 3.99561,-0.617 8.16547,-1.2034 12.04389,-2.2906 3.87843,-1.0873 7.46067,-2.6719 10.2817,-3.4946 2.82098,-0.8227 4.87765,-0.8827 6.02193,0.028 1.1443,0.9101 1.3808,2.7919 1.38087,5.7876 7e-5,2.9958 -0.23559,7.1065 1.4681,10.9847 1.70369,3.878 5.34573,7.5224 10.10471,11.2238 4.75897,3.7014 10.63342,7.4596 16.80213,11.807 6.16871,4.3476 12.63523,9.2861 15.86494,13.2204 3.22972,3.9345 3.2283,6.8697 4.11019,8.3401 0.88188,1.4704 2.64107,1.4691 3.87587,0.9396 1.23482,-0.5294 1.94004,-1.585 4.17251,-1.5254 2.23245,0.06 5.99243,1.2336 10.1047,3.4073 4.11228,2.1737 8.57722,5.3451 10.39883,5.4038 1.82161,0.059 0.99963,-2.9959 -1.99651,-7.343 -2.99614,-4.3471 -8.16655,-9.9872 -13.27771,-15.1571 -5.11115,-5.1699 -10.16353,-9.8708 -13.80611,-13.4547 -3.64259,-3.5837 -5.87492,-6.05 -5.87489,-6.6375 3e-5,-0.5876 2.23309,0.7037 7.28566,3.3474 5.05257,2.6439 12.92291,6.6393 19.62118,9.342 6.69827,2.7028 12.21962,4.1128 16.50802,6.169 4.28841,2.0562 7.34306,4.7564 10.69294,6.0493 3.3499,1.2931 6.98845,1.1778 9.51649,0.531 2.52802,-0.6468 3.9388,-1.8225 6.11167,-0.177 2.17288,1.6455 5.11023,6.109 7.34299,8.9881 2.23277,2.8791 3.75984,4.1727 3.81855,1.7049 0.0587,-2.4679 -1.35088,-8.6951 -3.52443,-13.1007 -2.17355,-4.4056 -5.11288,-6.9927 -7.34549,-9.1077 -2.23259,-2.1151 -3.75947,-3.7585 -1.4681,-2.6422 2.29138,1.1164 8.40124,4.9927 13.86595,7.343 5.46469,2.3505 10.28058,3.1719 14.7458,4.347 4.46518,1.1751 8.57671,2.7036 9.51647,0.5882 0.93975,-2.1152 -1.2916,-7.8737 -5.52096,-11.9267 -4.22934,-4.0529 -10.45728,-6.4041 -16.68497,-10.2817 -6.2277,-3.8775 -12.45542,-9.2813 -19.68101,-13.4521 -7.2256,-4.1709 -15.45162,-7.1101 -22.26575,-9.2248 -6.81416,-2.1148 -12.21394,-3.4045 -15.03744,-4.4044 -2.8235,-0.9999 -3.05832,-1.7047 -3.4696,-3.3499 -0.41126,-1.6453 -0.99857,-4.2316 -4.22981,-15.3939 -3.23125,-11.1624 -9.10575,-30.89893 -12.98359,-44.17753 -3.87783,-13.27859 -5.75696,-20.09081 -5.28665,-25.02748 0.47032,-4.93666 3.28842,-7.99105 7.98856,-13.74879 4.70012,-5.75774 11.27896,-14.21642 18.4472,-21.03196 7.16825,-6.81552 14.92389,-11.98393 25.26426,-16.2139 10.34038,-4.22995 23.26231,-7.52061 33.25034,-14.57131 9.98802,-7.05071 17.03818,-17.858 22.91381,-27.024 5.87563,-9.16598 10.57301,-16.68611 21.38341,-25.49856 10.81038,-8.81245 27.72854,-18.915 40.41883,-32.31064 12.6903,-13.39566 21.15075,-30.07934 26.43826,-46.76482 5.28751,-16.6855 7.4028,-33.36792 8.22534,-45.35406 0.82253,-11.98614 0.35165,-19.2702 1.05684,-26.3211 0.70518,-7.0509 2.58406,-13.86361 6.10917,-24.55639 3.52514,-10.69276 8.69649,-25.26131 11.98657,-38.53947 3.2901,-13.27817 4.69887,-25.26162 4.58128,-36.89441 -0.11766,-11.63279 -1.76218,-22.91411 -7.63712,-34.66359 -5.87493,-11.74949 -15.98051,-23.96914 -26.14413,-35.36649 -10.16362,-11.39735 -20.38543,-21.97069 -28.25778,-29.84305 -7.87237,-7.87235 -6.86225,-6.6667 -10.0424,-10.4063 -1.66324,-1.95582 5.75305,-0.13495 8.62912,-0.0847 2.32799,0.0407 6.58516,-0.0859 6.4083,-1.78964 -0.17687,-1.70377 -3.58457,-5.22812 -14.80562,-14.86295 -11.22105,-9.63483 -30.25521,-25.37837 -44.12025,-38.06838 -13.86504,-12.69004 -22.56163,-22.32453 -30.72788,-31.84206 -8.1663,-9.51752 -15.79628,-18.90837 -19.6187,-24.25977 -3.82242,-5.35141 -3.82121,-6.64505 -0.94217,-6.05686 2.87902,0.5882 8.63512,3.05667 16.80212,3.23282 8.16701,0.17614 18.7412,-1.93972 25.73287,-7.34548 6.99168,-5.40576 10.39856,-14.09896 12.16105,-22.26576 1.76248,-8.16679 1.87963,-15.80537 0.11715,-21.38589 -1.76249,-5.58052 -5.40546,-9.10565 -10.22187,-10.75028 -4.81639,-1.64463 -10.80982,-1.40878 -15.7453,-2.9362 -4.93546,-1.52741 -8.81369,-4.81633 -11.98657,-9.39932 -3.17286,-4.583 -5.63935,-10.45942 -8.16551,-14.86544 -2.52618,-4.40602 -5.11158,-7.34186 -6.46314,-11.16155 -1.35156,-3.81968 -1.4682,-8.51914 0.0598,-12.92625 1.52803,-4.4071 4.69934,-8.51682 8.75376,-11.8071 4.05443,-3.2903 8.98658,-5.75815 12.80661,-7.87391 3.82004,-2.11574 6.52336,-3.8781 5.28915,-5.05235 -1.23422,-1.17426 -6.40409,-1.76203 -11.86693,-1.35094 -5.46283,0.41106 -11.22254,1.82311 -16.15656,4.17249 -4.93403,2.34936 -9.0494,5.63883 -13.33752,9.3395 -4.28815,3.70067 -8.75074,7.81202 -10.57331,7.8714 -1.82257,0.0593 -1.00068,-3.9334 0.87986,-7.81158 1.88054,-3.87818 4.81831,-7.63713 8.28516,-11.22137 3.46686,-3.58424 7.45968,-6.99073 11.98407,-9.69344 4.52441,-2.70272 9.57346,-4.69959 13.45219,-5.87489 3.87872,-1.1753 6.58116,-1.52816 8.87339,-1.82204 2.29227,-0.29387 4.17245,-0.52866 3.99552,-1.35095 -0.17692,-0.82228 -2.41103,-2.23134 -6.11167,-3.34746 -3.70064,-1.11613 -8.87342,-1.93942 -13.45467,-1.82205 -4.58125,0.11741 -8.57859,1.17513 -11.45566,2.29065 -2.87707,1.1155 -4.63743,2.28937 -4.75574,1.81954 -0.1183,-0.46983 1.40905,-2.58449 2.11366,-6.81458 0.70462,-4.23007 0.58584,-10.57409 -1.58774,-15.21439 -2.17359,-4.64029 -6.40408,-7.5787 -11.74977,-10.10471 -5.34571,-2.52601 -11.80832,-4.64087 -17.62468,-7.63711 -5.81635,-2.99623 -11.33364,-7.59627 -17.15259,-11.15316 -3.5972,-2.19882 -6.97807,-4.94077 -10.97132,-6.29308 -3.80404,-1.28825 -12.00156,-3.29288 -11.94348,-1.5892 0.0581,1.70369 2.64845,5.00211 3.93819,6.93672 1.28975,1.9346 1.29156,2.52128 -1.41077,0.99451 -2.70233,-1.52677 -8.11,-5.16888 -13.63164,-7.57729 -5.52164,-2.40841 -11.16299,-3.58554 -15.09725,-4.05534 -0.98355,-0.11741 -1.86273,-0.19 -2.59222,-0.20189 z m 60.69555,85.94736 c 3.58282,0.0882 6.1676,1.32256 7.84149,3.40728 1.6739,2.08474 2.43977,5.02303 2.29314,7.93124 -0.14665,2.90821 -1.2052,5.78496 -3.34996,8.28266 -2.14477,2.49771 -5.37519,4.61117 -9.07779,4.75825 -3.70262,0.14706 -7.87102,-1.67177 -10.75028,-3.84597 -2.87925,-2.17422 -4.46481,-4.70031 -4.19991,-7.844 0.26491,-3.14369 2.37972,-6.90415 5.72783,-9.31208 3.34812,-2.40794 7.93266,-3.4656 11.51548,-3.37738 z m -28.64413,753.30439 c 0.0166,-0.0664 0.0481,0.0128 0.0923,0.24426 0.35247,1.88006 1.64494,13.98407 3.40729,22.61966 1.76233,8.6357 3.99328,13.8061 6.04936,19.387 2.05609,5.5807 3.94012,11.5799 4.17499,14.8081 0.23487,3.2281 -1.17671,3.6969 -3.29263,1.4057 -2.11592,-2.2911 -4.93628,-7.343 -6.6401,-15.0399 -1.70381,-7.6968 -2.28884,-18.0336 -2.87637,-27.37535 -0.51411,-8.1742 -1.03041,-15.58443 -0.91477,-16.04947 z"
       style="fill:#1a1a1a;fill-opacity:1;stroke:none;stroke-width:1.27617455px;stroke-linecap:butt;stroke-linejoin:miter;stroke-opacity:1" />
  </g>
</svg>
